<?xml version="1.0" encoding="UTF-8" standalone="no"?>
<!-- Created with Inkscape (http://www.inkscape.org/) -->

<svg
   width="512"
   height="512"
   viewBox="0 0 512 512"
   version="1.1"
   id="svg5"
   xml:space="preserve"
   xmlns="http://www.w3.org/2000/svg"
   xmlns:svg="http://www.w3.org/2000/svg"><defs
     id="defs2" /><g
     id="layer1"><path
       style="fill:#ffffff;stroke-width:0.515585"
       d="m 175.98412,446.57815 c -2.62654,-1.20818 -4.3949,-3.62064 -4.70892,-6.42411 -0.17409,-1.5542 0.97969,-7.16543 4.19332,-20.39376 2.43842,-10.03728 4.43349,-19.3415 4.43349,-20.67605 0,-2.69075 -1.30752,-5.08506 -3.77569,-6.91399 l -1.45554,-1.07858 -80.006891,-0.25779 -80.006887,-0.25779 -2.993952,-1.47013 C 4.2715201,385.47645 1.017307,376.08558 4.6413561,368.8431 5.9247477,366.27831 235.36948,76.50909 239.65255,72.04391 c 1.43425,-1.495235 3.9008,-3.233891 6.2172,-4.382473 l 3.83976,-1.90393 49.81547,-0.141203 49.81548,-0.141204 1.75791,1.184643 c 2.54479,1.714941 4.10256,4.275697 4.10256,6.744048 0,1.645745 -46.06285,176.736339 -50.01794,190.124389 -1.16099,3.92999 -4.0504,7.59349 -7.40369,9.38718 l -2.12845,1.1385 -39.82538,0.14119 c -38.92662,0.13801 -39.87091,0.11801 -41.84255,-0.88788 -2.42624,-1.23778 -3.97469,-3.09879 -4.76043,-5.72132 -0.51099,-1.70553 -0.12586,-4.41975 3.11718,-21.97146 2.03509,-11.01403 3.81817,-20.37355 3.96239,-20.79891 0.23308,-0.68744 0.18009,-0.68744 -0.47688,0 -2.05673,2.15215 -51.05428,66.39897 -51.46725,67.48515 -1.16196,3.05616 1.27772,6.53216 4.89124,6.96894 1.18013,0.14264 27.43513,0.51967 58.34446,0.83785 34.23986,0.35245 56.99242,0.78248 58.22997,1.10055 2.65202,0.68165 5.20088,3.28067 5.95165,6.06874 0.56381,2.09387 0.24941,3.62828 -5.31682,25.9482 l -5.91606,23.72271 6.78087,-0.28656 c 11.30895,-0.47791 21.15671,-3.02467 31.29971,-8.09449 8.00261,-3.99999 13.98959,-8.34177 20.62025,-14.95388 8.8941,-8.86922 14.86272,-18.32181 19.00065,-30.09162 0.99228,-2.8224 10.93979,-47.50219 26.09238,-117.19537 13.46879,-61.94869 24.86199,-113.37511 25.31823,-114.280954 1.17077,-2.324527 3.71285,-4.898071 6.1277,-6.20352 2.05796,-1.112521 2.15008,-1.115206 43.30915,-1.266235 22.68574,-0.08319 42.0058,-0.0138 42.93348,0.154334 3.26448,0.591606 6.82048,4.867544 6.82048,8.201348 0,1.228453 -51.28485,239.658197 -52.90866,245.979087 -7.1395,27.79126 -22.40459,54.9388 -42.73193,75.99474 -14.03251,14.53549 -28.77884,25.32657 -47.18785,34.53117 -17.3099,8.65503 -33.79469,13.74176 -54.12505,16.70144 -7.23234,1.05287 -9.53435,1.09363 -70.63515,1.25075 -60.97651,0.1568 -63.2322,0.12882 -65.27251,-0.80971 z"
       id="path194" /></g></svg>
