<?xml version="1.0" encoding="UTF-8" standalone="no"?>
<!-- Created with Inkscape (http://www.inkscape.org/) -->

<svg
   width="372.65903"
   height="373.84631"
   viewBox="0 0 372.65903 373.84631"
   version="1.1"
   id="svg5"
   xml:space="preserve"
   xmlns:inkscape="http://www.inkscape.org/namespaces/inkscape"
   xmlns:sodipodi="http://sodipodi.sourceforge.net/DTD/sodipodi-0.dtd"
   xmlns="http://www.w3.org/2000/svg"
   xmlns:svg="http://www.w3.org/2000/svg"><sodipodi:namedview
     id="namedview7"
     pagecolor="#505050"
     bordercolor="#eeeeee"
     borderopacity="1"
     inkscape:showpageshadow="0"
     inkscape:pageopacity="0"
     inkscape:pagecheckerboard="0"
     inkscape:deskcolor="#505050"
     inkscape:document-units="px"
     showgrid="false" /><defs
     id="defs2" /><g
     inkscape:label="Layer 1"
     inkscape:groupmode="layer"
     id="layer1"
     transform="translate(678.38135,418.35425)"><path
       id="rect7949"
       style="opacity:1;fill:#ffffff;fill-opacity:1;stroke:none;stroke-width:2;stroke-linecap:round;stroke-linejoin:round;stroke-dasharray:none;stroke-opacity:1"
       d="m -678.03731,-340.84862 -0.25585,81.36719 -0.25586,81.36719 36.25586,-0.51367 c 31.12524,-0.4406 37.52946,-0.79167 45.25585,-2.48828 4.95,-1.08696 10.80001,-2.8228 13,-3.85547 3.55456,-1.66848 4.20404,-2.54512 5.83399,-7.87696 3.03153,-9.91664 4.95496,-13.78446 9.11914,-18.33984 4.93977,-5.40384 11.33036,-8.70262 19.92969,-10.28711 l 6.64062,-1.22266 2.43164,-7.70117 c 4.81752,-15.25014 5.71223,-40.79613 1.9375,-55.36328 -6.03243,-23.27991 -20.9031,-40.32712 -42.75781,-49.01367 -13.50829,-5.36912 -17.88815,-5.80818 -59.13477,-5.94532 z m 166.76758,0.5 -0.45703,79.87891 -0.45703,79.87695 -2.69727,5.51367 c -3.30852,6.76241 -9.94729,13.04622 -17.48046,16.54493 -4.69006,2.17824 -7.06443,2.62715 -13.67579,2.58398 -9.43902,-0.0616 -13.85127,-1.91454 -22.6875,-9.52734 l -5.68945,-4.90039 -6.73828,2.53711 c -3.70675,1.3952 -10.07338,3.38966 -14.14844,4.43359 -4.07505,1.04394 -7.69725,2.18553 -8.04883,2.53711 -1.47405,1.47406 5.74189,12.4929 12.79102,19.53125 8.29259,8.2799 15.53348,12.60477 26.79492,16.00391 13.70266,4.13597 26.02568,4.3968 40.125,0.85156 10.39776,-2.6145 19.35705,-7.91276 27.60156,-16.32422 8.336,-8.5048 12.63626,-15.45978 16.86524,-27.2793 l 3.13476,-8.76172 0.29297,-81.75 0.29492,-81.75 h -17.91015 z m 125.78907,0.22461 c -2.90618,0.22818 -5.49714,0.73628 -9.05665,1.62305 -11.74894,2.92696 -27.10787,10.6952 -34.24609,17.32031 -17.1345,15.90281 -22.30582,42.41135 -12.35352,63.33203 7.87333,16.55051 18.94279,24.81263 54.09961,40.37891 28.18598,12.47982 37.30079,18.09716 41.08594,25.32227 2.08496,3.97975 1.81116,16.3274 -0.47265,21.35546 -6.11369,13.45994 -28.41134,19.56356 -49.61329,13.58204 -9.2504,-2.60974 -21.77795,-8.99856 -31.47656,-16.05274 l -6.77148,-4.92383 -10.67774,12.59766 -10.67773,12.59766 4.30273,3.8164 c 5.72959,5.08503 15.91659,11.90161 23.30078,15.58985 7.6368,3.8144 23.47425,8.88912 31.66797,10.14843 10.09145,1.55097 31.04254,0.58962 40.33203,-1.85156 30.83925,-8.1042 50.56472,-31.74184 50.48243,-60.49414 -0.0439,-15.34001 -5.02144,-27.62126 -15.46094,-38.14649 -8.22771,-8.29526 -16.48358,-13.40867 -33.58594,-20.80468 -19.93687,-8.62182 -39.51455,-18.18883 -44.39453,-21.69336 -5.63497,-4.04673 -8.54102,-9.75278 -8.54102,-16.76953 0,-9.56314 4.52629,-16.52721 13.5,-20.76954 4.42677,-2.09275 6.43309,-2.36318 17.5,-2.36132 16.97488,0.003 23.58306,1.97945 38.48438,11.51172 2.98028,1.90645 6.05105,3.46679 6.82422,3.46679 1.4705,0 18.6914,-20.09631 18.6914,-21.8125 0,-0.54246 -2.54097,-3.30822 -5.64648,-6.14648 -7.08104,-6.47168 -26.63579,-16.1861 -37.35352,-18.55664 -4.12499,-0.91237 -12.675,-1.90602 -19,-2.20703 -4.81579,-0.22918 -8.03718,-0.28091 -10.94335,-0.0527 z m -242.30665,33.9707 c 2.55206,0.083 5.64122,0.29575 9.36524,0.62696 15.28572,1.35948 21.93272,3.61837 28.78515,9.77929 8.61532,7.74591 12.09961,18.03534 12.09961,35.73829 0,15.66255 -3.21828,25.60189 -11.0332,34.08007 -8.18342,8.87798 -17.15713,11.48692 -39.7168,11.54883 l -11.25,0.0312 0.0137,-43.25 c 0.008,-23.78747 0.28128,-44.25066 0.60937,-45.47461 0.64545,-2.40782 3.47079,-3.32915 11.12695,-3.08008 z m 82.79883,96.64258 c -3.63321,-0.0148 -7.25878,0.47691 -9.20703,1.48438 -4.6241,2.39122 -11.0214,10.15153 -11.80273,14.31641 -2.99656,15.97301 11.39472,29.56165 26.78125,25.28906 4.23101,-1.17489 11.09999,-6.8635 13.10156,-10.85156 4.97424,-9.91101 0.42099,-23.48578 -9.61914,-28.67774 -1.97922,-1.02349 -5.62069,-1.54573 -9.25391,-1.56055 z" /><rect
       style="opacity:1;fill:#ffffff;fill-opacity:0;stroke:none;stroke-width:1.30053;stroke-linecap:round;stroke-linejoin:round;stroke-dasharray:none;stroke-opacity:1"
       id="rect7952"
       width="372.65903"
       height="373.84631"
       x="-678.38135"
       y="-418.35425"
       inkscape:export-filename=".\DJSIcon.svg"
       inkscape:export-xdpi="96"
       inkscape:export-ydpi="96" /></g></svg>
