<?xml version="1.0" encoding="UTF-8" standalone="no"?>
<!-- Created with Inkscape (http://www.inkscape.org/) -->

<svg
   width="512"
   height="512"
   viewBox="0 0 512 512"
   version="1.1"
   id="svg5"
   xml:space="preserve"
   xmlns:inkscape="http://www.inkscape.org/namespaces/inkscape"
   xmlns:sodipodi="http://sodipodi.sourceforge.net/DTD/sodipodi-0.dtd"
   xmlns="http://www.w3.org/2000/svg"
   xmlns:svg="http://www.w3.org/2000/svg"><sodipodi:namedview
     id="namedview7"
     pagecolor="#505050"
     bordercolor="#eeeeee"
     borderopacity="1"
     inkscape:showpageshadow="0"
     inkscape:pageopacity="0"
     inkscape:pagecheckerboard="0"
     inkscape:deskcolor="#505050"
     inkscape:document-units="px"
     showgrid="false" /><defs
     id="defs2" /><g
     inkscape:label="Layer 1"
     inkscape:groupmode="layer"
     id="layer1"><path
       style="fill:#ffffff;fill-opacity:1;stroke-width:0.725584"
       d="m 153.78885,438.71421 c -0.31042,-0.30216 -0.56441,-43.31143 -0.56441,-95.57616 0,-75.55689 0.19274,-95.02608 0.94069,-95.02333 0.51738,0.002 4.87429,3.07133 9.68201,6.82094 4.80773,3.74962 12.39301,9.6508 16.85618,13.11374 4.46317,3.46294 12.90548,10.074 18.76068,14.69125 5.8552,4.61726 21.53897,16.89495 34.8528,27.28377 l 24.20698,18.88876 0.0289,19.47296 0.0289,19.47296 -3.9509,-2.91017 c -2.17299,-1.60059 -16.59299,-12.88192 -32.04443,-25.06963 -32.29043,-25.46986 -35.50524,-27.81598 -36.37324,-26.54471 -0.33321,0.48804 -0.61104,22.21589 -0.61737,48.28413 l -0.0115,47.39679 h 46.5596 c 50.16271,0 53.26815,-0.18122 64.58323,-3.76876 12.87738,-4.08288 23.45805,-10.15825 33.64263,-19.31743 11.64308,-10.47084 19.87385,-22.60522 24.56373,-36.21361 1.70752,-4.95461 2.40921,-8.74461 2.97899,-16.09042 0.81034,-10.44696 1.06728,-216.25572 0.27555,-220.70857 l -0.46645,-2.62344 h -39.12086 -39.12084 l -62.4361,57.72188 c -34.33985,31.74704 -62.74729,57.5431 -63.12765,57.32458 -0.78889,-0.45325 -0.93205,-25.66765 -0.19566,-34.4621 l 0.48684,-5.81421 56.00913,-52.07633 56.00912,-52.076338 h 62.09235 62.09237 l -0.35635,128.898288 c -0.2326,84.11503 -0.63024,130.7422 -1.14452,134.20556 -3.2955,22.19368 -16.82589,47.53604 -33.84801,63.39726 -16.20946,15.10396 -38.74761,26.36455 -59.98413,29.96946 -5.83113,0.98984 -16.05522,1.19998 -73.74671,1.51571 -36.83737,0.2016 -67.23103,0.11932 -67.54146,-0.18283 z m -0.81726,-307.60832 c -0.27374,-15.8718 -0.49817,-33.658719 -0.4987,-39.526477 l -7.6e-4,-10.668651 h 42.89542 c 23.59247,0 42.89541,0.242595 42.89541,0.539099 0,0.603797 -83.73129,78.513849 -84.38019,78.513849 -0.22727,0 -0.63719,-12.98602 -0.91094,-28.85782 z"
       id="path194"
       inkscape:export-filename="heroLogo.svg"
       inkscape:export-xdpi="96"
       inkscape:export-ydpi="96" /><rect
       style="opacity:1;fill:#ffffff;fill-opacity:0;stroke:none;stroke-width:2;stroke-linecap:round;stroke-linejoin:round;stroke-dasharray:none;stroke-opacity:1"
       id="rect7801"
       width="512"
       height="512"
       x="0"
       y="0" /></g></svg>
