<?xml version="1.0" encoding="UTF-8" standalone="no"?>
<!-- Created with Inkscape (http://www.inkscape.org/) -->

<svg
   width="512.00006"
   height="512"
   viewBox="0 0 512.00006 512"
   version="1.1"
   id="svg5"
   xml:space="preserve"
   xmlns:inkscape="http://www.inkscape.org/namespaces/inkscape"
   xmlns:sodipodi="http://sodipodi.sourceforge.net/DTD/sodipodi-0.dtd"
   xmlns:xlink="http://www.w3.org/1999/xlink"
   xmlns="http://www.w3.org/2000/svg"
   xmlns:svg="http://www.w3.org/2000/svg"><sodipodi:namedview
     id="namedview7"
     pagecolor="#505050"
     bordercolor="#eeeeee"
     borderopacity="1"
     inkscape:showpageshadow="0"
     inkscape:pageopacity="0"
     inkscape:pagecheckerboard="0"
     inkscape:deskcolor="#505050"
     inkscape:document-units="px"
     showgrid="false" /><defs
     id="defs2"><linearGradient
       inkscape:collect="always"
       id="linearGradient7511"><stop
         style="stop-color:#ffffff;stop-opacity:1;"
         offset="0.56467313"
         id="stop7507" /><stop
         style="stop-color:#ffffff;stop-opacity:0;"
         offset="1"
         id="stop7509" /></linearGradient><radialGradient
       inkscape:collect="always"
       xlink:href="#linearGradient7511"
       id="radialGradient5290"
       cx="256"
       cy="256"
       fx="256"
       fy="256"
       r="256"
       gradientUnits="userSpaceOnUse"
       gradientTransform="translate(735.99642,-385.0496)" /></defs><g
     inkscape:label="Layer 1"
     inkscape:groupmode="layer"
     id="layer1"
     transform="translate(-735.9964,385.04959)"><path
       id="path7516"
       style="color:#000000;fill:url(#radialGradient5290);fill-opacity:1;stroke-width:2;stroke-linecap:round;stroke-linejoin:round;-inkscape-stroke:none"
       d="m 887.46908,-385.0496 v 79.91015 H 735.99642 v 2 h 151.47266 v 27.28907 H 735.99642 v 2 h 151.47266 v 49.28906 l -50.33789,46.50586 -101.13477,-77.13672 v 2.51563 l 99.64258,75.99804 -22.60938,20.88672 -77.0332,-58.29883 v 2.50782 l 75.54297,57.16992 -75.54297,69.791005 v 2.72266 l 77.16406,-71.287105 13.48633,10.20703 -90.65039,83.748045 v 2.72266 l 92.27148,-85.244135 22.98438,17.39453 -115.25586,106.480465 v 2.72265 l 116.875,-107.976555 29.48438,22.3125 c -3.10765,10.941635 -4.80555,22.475515 -4.80274,34.412105 0.004,17.37251 3.53613,33.92073 9.91602,48.9707 V 22.874228 H 735.99642 v 2 h 151.47266 v 28.08398 H 735.99642 v 2 H 887.46908 V 126.9504 h 2 V 54.958208 h 31.11328 V 126.9504 h 2 V 54.958208 h 48.08203 c 7.0523,1.88846 14.3488,3.16656 21.832,3.80078 V 126.9504 h 2 V 58.911338 c 2.8961,0.19926 5.80931,0.33626 8.75591,0.33594 11.2636,-0.001 22.1729,-1.50734 32.5605,-4.28907 h 52.3809 l 5.3125,4.02149 V 126.9504 h 2 V 60.493368 l 28.4004,21.49219 V 126.9504 h 2 V 83.499228 l 57.4141,43.451172 h 3.3144 l -60.7285,-45.958982 v -26.03321 h 13.4316 l 94.3887,71.992192 h 2.9648 a 1,1 0 0 0 -0.33,-0.50586 l -93.7266,-71.486332 h 105.3613 v -2 H 1140.014 l -14.1074,-10.75976 v -17.32422 h 122.0898 v -2 h -122.0898 v -61.992193 c 1.9522,-8.79976 3.0137,-17.9339 3.0137,-27.32031 a 1,1 0 0 0 -0.01,-0.0293 1,1 0 0 0 0.01,-0.0293 c 0,-9.36413 -1.0663,-18.47631 -3.0137,-27.25585 V -273.85038 h 122.0898 v -2 h -122.0898 v -27.28907 h 122.0898 v -2 h -122.0898 v -70.23828 l 10.4687,-9.67187 h -2.9472 l -7.5215,6.94922 v -6.94922 h -2 v 8.79687 l -28.4004,26.23828 v -35.03515 h -2 v 36.88281 l -46.5723,43.02734 h -41.8144 l 86.4941,-79.91015 h -2.9453 l -86.4961,79.91015 h -7.67581 v -15.57812 l 69.63481,-64.33203 h -2.9473 l -66.68751,61.60937 v -61.60937 h -2 v 63.45703 l -17.8086,16.45312 h -52.10543 v -79.91015 h -2 v 79.91015 h -31.11328 v -79.91015 z m 236.43752,11.52148 v 68.38867 h -28.4004 v -42.15234 z m -30.4004,28.08399 v 40.30468 h -43.625 z m -101.00981,26.57421 v 13.73047 h -14.8613 z m -103.02731,15.73047 h 31.11328 v 27.28907 h -31.11328 z m 33.11328,0 h 49.94143 l -29.53909,27.28907 h -20.40234 z m 52.88863,0 h 17.0254 v 6.93946 l -22.02536,20.34961 h -24.53906 z m 19.0254,0 h 5.51181 l -5.51181,5.0918 z m 8.45711,0 h 41.8144 l -29.5371,27.28907 h -20.73441 v -19.47657 z m 44.7617,0 h 45.791 v 27.28907 h -75.3281 z m 47.791,0 h 28.4004 v 27.28907 h -28.4004 z m -103.00981,9.66211 v 17.62696 h -19.08 z m -103.02731,19.62696 h 31.11328 v 18.69726 l -31.11328,28.74414 z m 33.11328,0 h 18.23828 l -18.23828,16.84961 z m 21.18554,0 h 24.53711 l -45.72265,42.24219 v -22.66993 z m 27.48239,0 h 21.2461 v 19.00195 l -69.91403,64.5918 v -38.63086 z m 23.2461,0 h 18.56841 l -18.56841,17.1543 z m 21.51571,0 h 77.4941 v 120.01562 c -22.8597,-23.60626 -54.867,-38.29962 -90.3145,-38.28711 -2.9259,0.001 -5.81921,0.13807 -8.69531,0.33594 v -62.18555 z m 79.4941,0 h 28.4004 v 172.28906 c -5.511,-18.95751 -15.3487,-36.06713 -28.4004,-50.17773 z m -174.92384,21.41992 v 22.66992 l -31.11328,28.74414 v -22.66992 z m 71.91403,0.30664 v 60.49219 c -26.50164,2.2459 -50.65912,12.6955 -69.91403,28.83008 v -24.73047 z m -71.91403,25.08399 v 38.63085 l -31.11328,28.74415 v -38.63086 z m -33.11328,5.20117 v 22.66992 l -35.28321,32.5957 -13.4414,-10.25195 z m 0,25.39062 v 38.63086 l -10.76563,9.94531 -22.9043,-17.46875 z m 115.72462,6.32617 c 35.639,-0.0126 67.7362,15.06268 90.3125,39.16602 v 64.150385 c -9.2887,-41.314325 -46.1928,-72.193315 -90.3027,-72.177725 -2.9379,0.001 -5.83911,0.15486 -8.70711,0.42382 v -31.22265 c 2.8765,-0.20097 5.76991,-0.33881 8.69731,-0.33985 z m -10.69731,0.49415 v 31.28515 c -29.75004,3.4427 -55.19024,20.99383 -69.48044,45.79297 l -0.43359,-0.33008 v -47.29101 c 19.1117,-16.4595 43.29947,-27.16661 69.91403,-29.45703 z m -71.91403,3.94335 v 24.61524 c -9.35226,8.1759 -17.48425,17.70496 -24.08203,28.29687 l -7.03125,-5.36328 v -18.80468 z m -83.32813,10.23829 13.43946,10.25 -22.55469,20.83789 -13.48828,-10.20703 z m 15.05469,11.48242 22.9043,17.46875 -22.46875,20.75781 -22.98438,-17.39453 z m 68.27344,5.52539 v 44.0332 l -22.4961,-17.1582 c 6.20435,-9.99769 13.7879,-19.04646 22.4961,-26.875 z m 82.62304,1.45508 c 47.7483,-0.0169 86.8335,36.90867 90.3008,83.773425 v 13.53907 c -1.6466,22.27382 -11.3209,42.30906 -26.1738,57.1933605 L 994.49639,-58.030075 v -98.525385 c 2.8669,-0.2745 5.77031,-0.4267 8.70901,-0.42773 z m -10.70901,0.65429 v 96.773435 L 924.6097,-111.3328 c 13.91515,-24.32229 38.77446,-41.55545 67.88669,-44.9961 z m -105.02731,1.23633 v 15.43164 l -9.15039,-6.97851 z m 208.03712,6.3125 c 13.777,15.42781 23.7257,34.33014 28.4004,55.236325 v 54.20898 c -4.6743,20.90607 -14.6227,39.81144049 -28.4004,55.240243 v -75.529303 c 0.1643,-2.25272 0.2773,-4.51993 0.2773,-6.81445 a 1,1 0 0 0 0,-0.02149 1,1 0 0 0 0,-0.02148 c -10e-4,-2.28257 -0.1137,-4.53816 -0.2773,-6.7793 z m -218.6797,3.51758 10.64258,8.11719 v 21.70898 c -1.72805,4.07664 -3.23087,8.26956 -4.52735,12.55274 l -28.57812,-21.62696 z m 12.64258,9.64258 5.97265,4.55469 c -2.17499,3.61929 -4.16387,7.36085 -5.97265,11.20507 z m 7.5664,5.77148 23.54688,17.95899 v 3.84375 c -4.22173,8.366775 -7.22299,17.452255 -8.74024,27.035145 l -22.37304,-16.93164 v -17.080075 c 2.19333,-5.13062 4.72713,-10.08027 7.5664,-14.82617 z m -9.5664,19.83399 v 10.558585 l -2.82032,-2.134765 c 0.84396,-2.85224 1.78031,-5.66164 2.82032,-8.42382 z m 36.13672,0.42968 68.89059,52.542965 v 37.07031 l -69.91403,-52.9121 v -34.701175 c 0.34086,-0.66693 0.66665,-1.34276 1.02344,-2 z m -3.02344,6.17578 v 29.011715 l -6.92578,-5.24023 c 1.21942,-8.35157 3.59007,-16.32365 6.92578,-23.771485 z m -36.51953,3.882815 3.40625,2.57617 v 74.0918 c -5.10082,-13.54738 -7.91241,-28.21775 -7.91602,-43.55079 -0.003,-11.47552 1.58929,-22.573 4.50977,-33.11718 z m 5.40625,4.08984 22.06054,16.69531 c -0.53685,4.03551 -0.84083,8.14406 -0.83984,12.32618 0.004,14.9607 3.58194,29.07956 9.89258,41.58593 v 47.703133 h -2.86914 C 905.75291,11.418095 896.07595,-2.3972545 889.46908,-17.852335 Z m 236.43752,13.39844 c 0.6414,5.09487 1.0112,10.27423 1.0137,15.54297 a 1,1 0 0 0 0.012,0.02734 1,1 0 0 0 -0.012,0.0293 c 0,5.28928 -0.3697,10.48921 -1.0137,15.60351 z m -212.53909,4.6875 7.21485,5.46094 v 42.42382 c -5.0542,-11.28518 -7.88948,-23.78287 -7.89258,-36.95117 -8.7e-4,-3.70329 0.24685,-7.34684 0.67773,-10.93359 z m 9.21485,6.97461 69.91403,52.91015 v 40.339853 h -4.125 C 959.5906,18.121538 935.40993,-0.19054451 922.58236,-25.291795 Z m 71.91403,14.85937 71.37501,54.4394605 c -7.4341,7.12584 -16.0768,12.9904595 -25.5976,17.2636725 l -45.77741,-34.644533 z m 99.00981,9.44336 v 63.560553 l -24.584,-18.7519525 c 12.028,-12.1219305 20.7059,-27.5572305 24.584,-44.8086005 z m 30.4004,14.75977 v 54.187503 h -23.3359 l -5.0645,-3.86328 v -0.14844 c 13.0514,-14.1108225 22.8895,-31.219323 28.4004,-50.175783 z m -201.32424,10.23633 c 12.02408,21.32683049 32.24991,37.404153 56.40233,43.951173 h -56.40233 z m 71.91403,5.125 43.68951,33.064453 c -6.3589,2.66218 -13.0894,4.60623 -20.0879,5.76172 h -23.60161 z m -105.02731,2.9375 c 6.32053,13.43292049 14.93902,25.56792 25.36523,35.888673 H 889.46908 Z M 1067.471,0.14375549 1092.4457,19.192588 c -1.2034,1.25336 -2.4327,2.47976 -3.6875,3.68164 h -39.6465 l -7.0274,-5.31836 c 9.4311,-4.371023 17.9977,-10.2818225 25.3867,-17.41211251 z m -27.4609,18.34961251 5.7891,4.38086 h -18.3086 c 4.3059,-1.16724 8.4869,-2.63169 12.5195,-4.38086 z m 53.4961,2.4668 v 1.91406 h -1.8672 c 0.6335,-0.62714 1.2471,-1.27369 1.8672,-1.91406 z m 2,0.5664 1.7676,1.34766 h -1.7676 z m -206.03712,3.34766 h 27.46289 c 1.19493,1.12983 2.41187,2.23563 3.65039,3.31836 v 24.76562 h -31.11328 z m 30.34179,0 h 0.77149 v 0.6914 c -0.25687,-0.23091 -0.51657,-0.45838 -0.77149,-0.6914 z m 2.77149,0 h 65.62503 c 1.4187,0.23195 2.8494,0.42713 4.289,0.59375 v 27.49023 h -21.5683 c -18.1004,-4.88496 -34.54465,-13.77462 -48.34573,-25.66015 z m 95.68554,0 h 30.1738 l 19.0352,14.40429 c -9.8246,5.98218 -20.5571,10.60991 -31.9316,13.67969 h -41.04891 v -27.27148 c 2.8826,0.27036 5.79891,0.42222 8.75201,0.42187 5.116,-6e-4 10.1291,-0.43481 15.0195,-1.23437 z m 33.4863,0 h 34.9063 c -5.3778,4.91589 -11.2057,9.34229 -17.3906,13.25586 z m 37.7872,0 h 3.9648 v 28.08398 h -4.6426 l -17.9023,-13.54883 c 6.6485,-4.26368 12.8659,-9.13213 18.5801,-14.53515 z m 5.9648,0 h 4.3887 l 24.0117,18.31445 v 9.76953 h -28.4004 z m 7.6875,0 h 20.7129 v 15.79883 z m -180.61134,5.05078 c 12.08082,10.12317 26.09362,18.001 41.40234,23.0332 h -41.40234 z m 146.58594,10.63477 16.3828,12.39843 h -43.0566 c 9.4319,-3.10077 18.3751,-7.27284 26.6738,-12.39843 z m 56.7383,4.15429 10.8086,8.24414 h -10.8086 z m -146.34771,10.24414 h 12.9375 v 1.79688 c -4.3815,-0.37702 -8.6985,-0.97512 -12.9375,-1.79688 z m 14.9375,0 h 32.41411 c -7.6605,1.48488 -15.5652,2.28811 -23.6602,2.28907 -2.9467,3.2e-4 -5.85871,-0.13956 -8.75391,-0.3418 z m 97.00981,0 h 2 v 1.51367 z m 4,0 h 28.4004 v 24.51953 l -28.4004,-21.49218 z" /></g></svg>
